<svg width="40" height="26" viewBox="0 0 40 26" fill="none" xmlns="http://www.w3.org/2000/svg">
<path d="M8.24805 0C13.5252 0.000101806 16.6357 4.05422 16.6357 12.5469C16.6357 21.9132 12.7561 25.0938 8.35254 25.0938C3.07535 25.0587 3.96861e-05 21.0394 0 12.5469C0 3.21532 3.84445 0.0349492 8.24805 0ZM29.4307 0.279297C35.6167 0.279297 39.1123 2.41135 39.1123 7.89844C39.1123 13.2806 35.4419 15.7275 28.7666 15.7275H26.0059V18.7676H35.2324V20.3057H26.0059V24.7441H24.3281V20.3057H20.5537V18.7676H24.3281V15.7275H20.5537V14.1895H24.3281V0.279297H29.4307ZM8.2832 1.60742C4.78829 1.60742 1.64258 3.98422 1.64258 12.5469C1.64261 20.3404 4.2636 23.4513 8.35254 23.4863C11.8474 23.4863 14.9931 21.1094 14.9932 12.5469C14.9932 4.78832 12.3371 1.67752 8.2832 1.60742ZM26.0059 14.1895H28.6621C34.3586 14.1895 37.3641 12.407 37.3643 7.79395C37.3643 3.28552 34.5338 1.81743 29.2217 1.81738H26.0059V14.1895Z" fill="#979393"/>
</svg>
