<svg width="148" height="148" viewBox="0 0 148 148" fill="none" xmlns="http://www.w3.org/2000/svg">
<path fill-rule="evenodd" clip-rule="evenodd" d="M74 0C52.2563 0 41.2451 2.9228 32.5022 6.54552C20.7457 11.4125 11.413 20.7512 6.54581 32.5008C2.92293 41.2432 0 52.254 0 74.0032C0 95.7525 2.92293 106.757 6.54581 115.506C11.413 127.262 20.7521 136.594 32.5022 141.461C41.2515 145.084 52.2563 148 74 148C95.7437 148 106.755 145.077 115.504 141.461C127.261 136.594 136.593 127.255 141.461 115.506C145.084 106.757 148 95.7525 148 74.0032C148 52.254 145.077 41.2497 141.461 32.5008C136.593 20.7448 127.254 11.4125 115.504 6.54552C106.761 2.9228 95.7502 0 74 0ZM39.884 24.3545C45.8725 21.8724 54.3043 19.2801 74.0065 19.2801C93.7152 19.2801 102.14 21.8724 108.129 24.3545C115.154 27.2644 120.741 32.8507 123.657 39.8823C126.14 45.8705 128.732 54.3019 128.732 74.0032C128.732 93.7046 126.14 102.136 123.657 108.124C122.368 111.235 120.559 114.061 118.33 116.504C117.552 117.353 117.079 117.865 116.71 118.176C116.541 117.644 116.405 116.834 116.191 115.512C109.276 72.6099 75.3999 38.7417 32.5022 31.8268C31.1801 31.6129 30.3699 31.4768 29.8385 31.3083C30.1496 30.9389 30.6616 30.4658 31.5106 29.6881C33.9475 27.4588 36.7796 25.6507 39.8905 24.361L39.884 24.3545ZM29.4885 31.1593H29.4756V31.1528H29.482L29.4885 31.1593ZM21.0049 51.1652C21.1216 50.5301 21.1929 50.1931 21.2641 49.9663C21.5039 49.9533 21.8539 49.9792 22.5085 50.0311C62.7879 53.0641 94.9466 85.2149 97.9797 125.499C98.0315 126.154 98.051 126.503 98.0445 126.743C97.8177 126.815 97.4806 126.879 96.8455 127.003C93.1254 127.709 88.5304 128.266 82.6456 128.538C81.9068 128.571 81.4985 128.59 81.2198 128.571C81.1356 128.273 81.0773 127.839 80.9671 127.054C76.5794 96.0053 52.0165 71.4434 20.966 67.0559C20.1818 66.9458 19.7541 66.8809 19.4559 66.8032C19.4365 66.518 19.4559 66.1162 19.4884 65.3774C19.7606 59.4929 20.3179 54.8981 21.0243 51.1782L21.0049 51.1652ZM19.8383 88.196C19.7606 87.2757 19.7152 86.7508 19.7281 86.3944C20.0716 86.4203 20.5642 86.5175 21.4327 86.6925C41.4136 90.8272 57.1624 106.569 61.3037 126.555C61.4852 127.424 61.5824 127.923 61.6019 128.266C61.2454 128.279 60.7204 128.24 59.8001 128.156C49.7481 127.262 44.2004 125.434 39.8776 123.639C32.8522 120.729 27.2655 115.143 24.3491 108.111C22.5539 103.789 20.7262 98.2346 19.8318 88.1831L19.8383 88.196Z" fill="#04C9B0"/>
</svg>
