<?xml version="1.0" encoding="UTF-8"?> <svg xmlns="http://www.w3.org/2000/svg" viewBox="0 0 111.93377685546875 29.39158821105957" fill="none"><path fill-rule="evenodd" clip-rule="evenodd" d="M12.447085956764221 25.307777213096617L12.447735572433471 25.31102529144287C12.520917276096345 25.665315683364867 12.557195812702178 25.84096176624298 12.447085956764221 25.966637413024902C12.337450819969177 26.09181335544586 12.153309762954713 26.0755729637146 11.786576732444763 26.042842328071597L11.778731373977662 26.04234262371063C9.701960049819947 25.856202749252322 8.53957275056839 25.476427434921263 7.63098529624939 25.100399903297426C6.1199042939186095 24.474445235538482 4.918789906692505 23.272931084823608 4.293035120677948 21.761325392913818C3.9172074707984925 20.852413130760194 3.535558265113831 19.689651053237913 3.3515171489715576 17.612155157756806L3.3508675333023072 17.605034370613097C3.3183617646217347 17.239600571441652 3.3019464763641357 17.055234647464754 3.427072448348999 16.943550722789766C3.5510491003036497 16.833091073799135 3.729293645858765 16.869919285202027 4.085757751750946 16.943550722789766C8.278052473258972 17.81176206474304 11.57917443742752 21.114033348941803 12.447085956764221 25.307777213096617ZM16.46116111793518 26.117797982215883C16.17250689382553 26.131289999961854 16.029141712665556 26.1372864522934 15.928401313495636 26.055834641456602C15.829759672641753 25.97463268280029 15.808372325992584 25.823721965789794 15.765872470092773 25.52439905357361L15.765672588348389 25.522899940490724C14.895837207221986 19.36406867685318 10.025468653106689 14.49205109834671 3.8687611330032348 13.62189090938568C3.568488782501221 13.57926612739563 3.419327030754089 13.557953736400604 3.3360263137817383 13.459112213802337C3.254649458599091 13.360270691204072 3.2604710144042968 13.214931677818297 3.2740130025863645 12.926177512836457C3.330204757976532 11.716892959308623 3.4445121305465696 10.76727977695465 3.59172503528595 9.994037248802185L3.5936239118576045 9.984093132019042C3.6407960035324094 9.73681442899704 3.6647318424224853 9.611238723087311 3.7641480250358583 9.53475897064209C3.864813468551636 9.457304794692993 3.994461765003204 9.466899118423463 4.255557293605804 9.486237677192687L4.256231894493103 9.486287647628783C12.605941973114014 10.114191162395477 19.272173044872282 16.782695888996127 19.899851692676545 25.133380391120912L19.89990166311264 25.134129947662355C19.919240221881868 25.395225476264955 19.928834545612336 25.52489875793457 19.851430340099334 25.625589186668396C19.774950587654114 25.72503035449982 19.64942485218048 25.74901616382599 19.40222110481262 25.79623822593689L19.39227698802948 25.797987191200257C18.61736045026779 25.945399977684023 17.668097060966492 26.059582424163818 16.46116111793518 26.115799164772035V26.117797982215883ZM23.946857371234895 23.56168524980545C23.619451073932648 23.920198143577576 23.454773501777648 24.100441506576537 23.255241550445554 24.040352057170868C23.055684613895416 23.98028759298325 23.013084817123413 23.714769680786134 22.92783525314331 23.183783826828005C21.54655245857239 14.612205011940004 14.779580987644197 7.842909915733338 6.21095042848587 6.461152402019501C5.680139471054078 6.37587785282135 5.414721499729157 6.333253070831298 5.354682020759583 6.131697316837311C5.294817438316345 5.932789995956421 5.473536703014374 5.768512187290192 5.8294511341094974 5.441330756950378L5.8331739315986635 5.43790778207779C6.358188318443299 4.9592409747123725 6.964554575252533 4.5696964401245115 7.632934143257142 4.292585386753082C8.897985703468322 3.7673961033821106 10.655096147918702 3.234461402416229 14.69435640888214 3.234461402416229C18.733591684627534 3.234461402416229 20.490727114295957 3.7673961033821106 21.75577867450714 4.292585386753082C23.26685967683792 4.918540054512024 24.467974064064027 6.1200791904449465 25.09365389442444 7.631684882354736C25.618843177795412 8.897161191272735 26.151528026580813 10.654896266174315 26.151528026580813 14.6955307141304C26.151528026580813 18.736165162086486 25.618843177795412 20.49390023698807 25.09365389442444 21.759376545906065C24.8166927523613 22.42798098087311 24.427298129081723 23.03649596643448 23.948781233024597 23.56168524980545H23.946857371234895ZM0.0019372913444042207 14.6955307141304C0.0019372913444042207 10.313798069381715 0.588936568698883 8.121969816112518 1.3057349907588958 6.393317535018921C2.260817437343597 4.089080785751342 4.089630460548401 2.2577192703056337 6.394991544628143 1.3023070188426973C8.121120318698884 0.5872000960445404 10.312199015426636 0 14.69240756187439 0C19.072616108322144 0 21.263694805049894 0.5872000960445404 22.99177242612839 1.3042458717632293C25.29528460407257 2.2596581232261657 27.125951530456543 4.089080785751342 28.081136416435243 6.395266382026672C28.79596350479126 8.12391866312027 29.384865094184875 10.315746916389465 29.384865094184875 14.697454575920105C29.384865094184875 19.079187220668793 28.797712470054627 21.27101547393799 28.081136416435243 22.999667755031584C27.125951530456543 25.303779578208925 25.297033569335937 27.13519606113434 22.99177242612839 28.088631981849673C21.263694805049894 28.805707739830016 19.072616108322144 29.393110216140744 14.69240756187439 29.393110216140744C10.312199015426636 29.393110216140744 8.121120318698884 28.805707739830016 6.393067682838439 28.088631981849673C4.089630460548401 27.13519606113434 2.25888108294487 25.303779578208925 1.3037961378383638 22.999667755031584C0.588936568698883 21.27101547393799 0 19.079187220668793 0 14.697454575920105L0.0019372913444042207 14.6955307141304ZM39.39394344425202 3.6481416576385497C39.39394344425202 4.424557308483124 39.05739255714417 4.989847866821289 38.390287235260004 5.334044230651855C39.29924946784973 5.570129555988312 39.759727036476136 6.1566325644493105 39.759727036476136 7.081610321807861C39.759727036476136 7.40726765384674 39.69526517391205 7.716834505462646 39.57083878803253 8.004289439105987C39.444163732528686 8.293768175411223 39.25127784919739 8.545044513320923 38.99992655563355 8.752097015285491C38.75082393169403 8.95914951725006 38.43725944519043 9.124001985931397 38.06972688770294 9.246629436111451C37.70394329547882 9.367233083629609 37.275946510314945 9.429546217441558 36.79972825431824 9.429546217441558C36.47417086315155 9.429546217441558 36.164604011535644 9.401412861919402 35.88327045631409 9.349143785762788C35.60193690109253 9.294850906944275 35.3425903377533 9.22249371547699 35.11372574043274 9.13404604358673C34.8846112909317 9.045598371696473 34.68148146820068 8.945082839488983 34.51283124637604 8.832524432182312C34.34193235492707 8.719941039657591 34.205263212203974 8.60333502702713 34.104822635650635 8.484755182170868L34.080586974143976 8.456596841430665V6.4302956577301025L34.26747640514374 6.759975609874726C34.370165651321415 6.940893573760986 34.5028371591568 7.10774485988617 34.661493293762206 7.260529468250275C34.82214824581146 7.413289091396332 35.011036494255066 7.547984401893616 35.22216158676148 7.662566611862182C35.435035644531254 7.775125019168854 35.678391668319705 7.865596493721009 35.945483649253845 7.929933430194854C36.21282548236847 7.994245381450653 36.50815075969696 8.026401357078553 36.81971642875672 8.026401357078553C37.0245952167511 8.026401357078553 37.217481100082395 8.00229062166214 37.396375261306765 7.956042983055115C37.57127178764343 7.911819147109985 37.723931469917304 7.843484575748443 37.85060652542114 7.757035721302033C37.97528276348115 7.672610669517518 38.07372452259064 7.564049897098541 38.14593180274964 7.43942362947464C38.21639011764526 7.316796179294586 38.252618683815 7.168059176254272 38.252618683815 6.999184087467194C38.252618683815 6.707706533718109 38.14793062019348 6.498630229091644 37.93305774497986 6.363959903812408C37.70594211292267 6.2212193531036375 37.32416798114777 6.148862161636353 36.7974795846939 6.148862161636353H35.63416783237457V4.870368554115295H36.78748549747467C37.00260822486878 4.870368554115295 37.18350120353699 4.846232833480835 37.326166798591615 4.797986377429962C37.46483475875855 4.751763724040985 37.57726823997498 4.687426787567139 37.65971945953369 4.607024355888367C37.7421706790924 4.528620741653442 37.80238505458832 4.43615044965744 37.8406124382019 4.331612297344208C37.87883982181549 4.225075327587128 37.89882799625397 4.1064704975128175 37.89882799625397 3.97982042722702C37.89882799625397 3.831083424186706 37.86859588241577 3.7004107337951657 37.810380324363706 3.593873764038086C37.75216476631165 3.487336794281006 37.66771472930908 3.398864137172699 37.56327651786805 3.3325283832550046C37.45259200191498 3.2621700092315673 37.32216916370392 3.2099259182929996 37.17350711631775 3.173722337341309C37.01859876441956 3.1355449241638182 36.84994854259491 3.113433006191254 36.67105438137054 3.1073865834236143C36.415705452919006 3.1013651458740235 36.17259928131104 3.131522304058075 35.945483649253845 3.1978580579757687C35.71836801719665 3.266192629337311 35.50749277687073 3.358662921333313 35.31860452842712 3.4752689339637755C35.12971627998352 3.593873764038086 34.954819753646845 3.7265452718734737 34.804158888816836 3.875307260131836C34.65349802398681 4.022045445728302 34.52882178592682 4.174830054092407 34.43237884426117 4.327589677238464L34.24748823070526 4.62311483631134V2.405826645851135L34.287714431762694 2.3756719861888884C34.49659085464478 2.2168634417533877 34.80615770626068 2.0640888274765015 35.20816986465454 1.9213607693767547C35.61193098831177 1.778635209798813 36.10638845348358 1.7062680242443085 36.67705083370208 1.7062680242443085C37.07681432247162 1.7062680242443085 37.446595549583435 1.7444629270744323 37.77215294075012 1.8188414226818086C38.10370678424835 1.8932199182891845 38.393285461425776 2.01182224984169 38.63239399814606 2.1666081741714476C38.87550016975403 2.3254167186069488 39.06638723564148 2.530452913475037 39.19705992603302 2.773708996391296C39.327482764244074 3.018938911533356 39.39394344425202 3.312440267944336 39.39394344425202 3.6481416576385497ZM46.341333174705504 4.827618846035003C46.20666284942627 5.052760645866393 46.011778148651125 5.239725032520294 45.758428037643434 5.382440598011017C46.07998779392243 5.482956130218506 46.329340270042415 5.65582885389328 46.497990491867064 5.8930385140419C46.70911558437348 6.1905375053405765 46.81755143070221 6.594598451614379 46.81755143070221 7.095152309989929C46.81755143070221 7.485121593284608 46.74934178543091 7.82686940574646 46.61667027759552 8.110301719284058C46.48399876976013 8.397781638145446 46.289114068984986 8.632967495632172 46.03776277542114 8.813885459518433C45.79065896892547 8.99078080329895 45.48933723926544 9.123477296352387 45.1395441865921 9.205878545475006C44.79599743843078 9.286280977153778 44.401980549812315 9.32850599565506 43.96798731231689 9.32850599565506H40.98800035572052V1.8102689943695067H44.13888620376587C45.77666724681854 1.8102689943695067 46.6064263381958 2.4555522268104553 46.6064263381958 3.7300432024002075C46.6064263381958 4.16626012430191 46.51822851848602 4.534117489624024 46.341333174705504 4.827618846035003ZM43.98822533893585 3.2154226662635805H42.44288960266114V4.906022460269928H43.95799322509766C44.33576972198487 4.906022460269928 44.635092634201044 4.825595043373108 44.846217726707465 4.664790180015564C45.05109651470185 4.510006754207611 45.151537091255186 4.296907829475403 45.151537091255186 4.013475515937806C45.151537091255186 3.7521551203727723 45.067336906433106 3.5591692961692813 44.89443919754028 3.424473985671997C44.715545036315916 3.285781040287018 44.41022567176819 3.2154226662635805 43.98822533893585 3.2154226662635805ZM44.048439714431765 7.927384937953949C44.50666861343384 7.927384937953949 44.84421890926361 7.851005126380921 45.05309533214569 7.7002193354606625V7.702243138122559C45.25422633743286 7.557503769969941 45.35266809654236 7.326315547370911 45.35266809654236 7.0046808354377745C45.35266809654236 6.683046123504639 45.250228702545165 6.4659495638847355 45.03910361003876 6.33730067615509C44.81598561286926 6.200606548213958 44.488429404258724 6.13224699163437 44.06842788887023 6.13224699163437H42.44288960266114V7.927384937953949H44.048439714431765ZM50.970344522476196 5.9251445192337036L48.782139125823974 1.812222838420868H47.10013424682617L50.2250354681015 7.641878851318359C50.15857478809356 7.76650511894226 50.08636750793457 7.852953973388671 50.0059151058197 7.899176626777649C49.80703277015686 8.01578263940811 49.53769211959839 7.997693341541291 49.3105764875412 7.907221866989136C49.1898978843689 7.8609992136001585 49.085459672927854 7.794638474464416 49.003008453369134 7.714236042785644L48.832359414100644 7.549408559322357V9.211850012588501L48.89257378959656 9.237984550666809C48.99101554870606 9.282208386611938 49.1176906042099 9.322409602451325 49.266352651596065 9.358613183403016C49.41701351642609 9.394791779136657 49.579917138099674 9.41288107700348 49.746568542480475 9.41288107700348C49.93545679092408 9.41288107700348 50.11634976959228 9.386746538925172 50.283251026153565 9.334477462768554C50.451901247978206 9.282208386611938 50.61680368709564 9.189738094615937 50.7734610042572 9.059090389442444C50.92836935615539 8.932440319156647 51.079030220985416 8.759567595481872 51.22369463348389 8.546468670749665C51.36636022853851 8.337417351341248 51.51102464103699 8.066027912902832 51.65369023609161 7.742394383525848L54.29412807941437 1.812222838420868H52.75903628253937L50.970344522476196 5.9251445192337036ZM61.476628711700435 1.812222838420868L58.72150871753693 5.392434685230255L61.91461958408356 9.33045484266281H60.0497229089737L57.501730372428895 6.162354179382325H56.53705110359192V9.33045484266281H55.082161856651304V1.812222838420868H56.53705110359192V4.885859389305114H57.43951717948914L59.696182073593135 1.812222838420868H61.476628711700435ZM111.93377685546875 24.681597678375244C111.77487086868285 24.877306891345977 111.54850479316713 25.072916163444518 111.25517833328247 25.26880027294159C110.97384477806092 25.45219177341461 110.63754374313355 25.62359036922455 110.24627522850037 25.782496356010437C109.85500671386718 25.929409438133238 109.41476717185974 26.05158715438843 108.92555660247803 26.14952920913696C108.44883864212036 26.247221411705016 107.93514255905151 26.296192439079284 107.38496805763245 26.296192439079284C106.3333402299881 26.296192439079284 105.3794046049118 26.14328290462494 104.52341103458404 25.83746383571625C103.66766731643676 25.531644766807556 102.93385146236419 25.097401677131653 102.3224631767273 24.53480952234268C101.72331764793397 23.95987466983795 101.25259613990784 23.26263717498779 100.91004880046845 22.44307205257416C100.5799940700531 21.623481944942476 100.41484177875519 20.693831951808928 100.41484177875519 19.654072102737427C100.41484177875519 18.68771882429123 100.5799940700531 17.80086850967407 100.91004880046845 16.993546144104002C101.24035338306427 16.18619879331589 101.71107489109039 15.488961298465728 102.3224631767273 14.901808674335479C102.93385146236419 14.314631064987182 103.66766731643676 13.862048825263978 104.52341103458404 13.544011984729767C105.39164736175536 13.21373238735199 106.35782574367524 13.048580096054078 107.42169632816314 13.048580096054078C108.43659588527679 13.048580096054078 109.30483221244812 13.177029102039338 110.02615545749664 13.433902128791809C110.74772855472564 13.678557383918763 111.2979030561447 13.935430410671234 111.67692881393432 14.204546194267273V17.39720732688904C111.48129455661774 17.115848786449433 111.23668927192688 16.840636609649657 110.94336281204224 16.571520826053618C110.66202925682069 16.30240504245758 110.33797097873688 16.06387116575241 109.97118797779083 15.85591919593811C109.61664773368835 15.64796722612381 109.21913291454315 15.482839920043947 108.7788933725357 15.360512292480468C108.35089658737184 15.225966893291474 107.89841428852081 15.158681701087952 107.42169632816314 15.158681701087952C106.72460874462128 15.158681701087952 106.09473139762878 15.268766571807861 105.53231413936615 15.488961298465728C104.96989688110351 15.709131039905548 104.49292906856537 16.01495010881424 104.10166055393219 16.406393519973754C103.71039203929901 16.79781194591522 103.41081927490234 17.274879699325563 103.20294226074218 17.837571794986726C102.99506524658203 18.388021133804322 102.89112673950196 18.999634286403655 102.89112673950196 19.672436238002778C102.89112673950196 20.29626716222763 102.98282248973847 20.883444771575927 103.16621399021149 21.433894110393524C103.36184824752807 21.972125677585602 103.64318180274962 22.44307205257416 104.00996480369568 22.846733235359192C104.38899056148529 23.25039441814423 104.85971206951142 23.57455263710022 105.42237917995453 23.819207892227173C105.98479643821716 24.05162039051056 106.63291299438477 24.173948018074036 107.36647899627687 24.186165789699555C107.92914610671997 24.186165789699555 108.44259233760833 24.125026961135863 108.90731739330292 24.002699333572387C109.38428520584107 23.880371706008912 109.81228199100495 23.715219414710997 110.19130774879456 23.507267444896698C110.58257626342773 23.299315475082395 110.92487375068664 23.054685205173495 111.21845006275177 22.773326664733887C111.5120263748169 22.49199310951233 111.75038535499573 22.18617404060364 111.93377685546875 21.855919428443908V24.681597678375244ZM91.92761305999755 20.534975935459137H97.8338687543869V18.424899315643312H91.92761305999755V15.360687189006805H98.51271712875366V13.250610569190979H89.6349694519043V26.094561729431152H98.71434783840179V23.984510094833375H91.92761305999755V20.534975935459137ZM83.9955558862686 20.534975935459137H76.97046212768555V26.094561729431152H74.6775686674118V13.250610569190979H76.97046212768555V18.424899315643312H83.9955558862686V13.250610569190979H86.28844934654236V26.094561729431152H83.9955558862686V20.534975935459137ZM63.977399186134335 13.433552335739135C63.25607594108582 13.678182605648042 62.71189789199829 13.93508061761856 62.34511489105224 14.204196401214599V17.396832548618317C62.52850639152527 17.11549899339676 62.76086891937256 16.840261831378935 63.04195262241364 16.5711460477829C63.33552893447876 16.30203026418686 63.659587212562556 16.06352137269974 64.01412745666505 15.855569402885438C64.38116030979157 15.635374676227569 64.77842527675628 15.46412599172592 65.20642206192016 15.341798364162445C65.64666160392761 15.219470736598968 66.11138665962218 15.164428301239015 66.60034737682344 15.176671058082581C66.94289471626281 15.1888888297081 67.26070668983459 15.231713493442534 67.55428300189972 15.305095078849792C67.84760946178436 15.36625889263153 68.10445750331878 15.46412599172592 68.32457727432251 15.598671390914918C68.54469704532623 15.73324177532196 68.71584578895569 15.910611838245392 68.83827335739136 16.130781579685213C68.96045107364654 16.338733549499512 69.02166485786438 16.589510183048247 69.02166485786438 16.88308649511337C69.02166485786438 17.127716765022278 68.97894013500213 17.35403287010193 68.89324083709717 17.56198483991623C68.81978429603576 17.769936809730527 68.69760657978057 17.953403265857695 68.52645783615111 18.112434178733825C68.35530909252168 18.271465091609954 68.12894301700592 18.399889112377167 67.84760946178436 18.497756211471557C67.56652575874328 18.58338055372238 67.21798196697235 18.626205217456818 66.80222793865204 18.626205217456818H64.87636733150482V20.516087110614777H66.82046714782715C67.82337380027771 20.516087110614777 68.54469704532623 20.650657495021818 68.98493658733368 20.91977327861786C69.43741888618469 21.1888890622139 69.66353510951997 21.610889395046232 69.66353510951997 22.185824247550965C69.66353510951997 22.51610384492874 69.59032842063904 22.803558778572082 69.44341533851623 23.048189048480985C69.29675210857391 23.29284430360794 69.09512139892578 23.500796273422242 68.83827335739136 23.67204495792389C68.5936680727005 23.83107587080002 68.30009176063538 23.953403498363496 67.95779427337646 24.039027840614317C67.61549678611756 24.124652182865145 67.24846393299103 24.167451861381533 66.85719541835785 24.167451861381533C66.27029264640808 24.167451861381533 65.72011814498902 24.112409426021575 65.20642206192016 24.00232455530167C64.70496873569489 23.879996927738187 64.25273628902436 23.714869621658323 63.84922501754761 23.506917651844024C63.44546389389038 23.298965682029724 63.090923649787904 23.05431042690277 62.78535443305969 22.772976871681212C62.479535364151005 22.491618331241607 62.2289336271286 22.185824247550965 62.03329936981201 21.855544650173186V24.681222900104522C62.204448113441465 24.876932113075256 62.43681064128876 25.072666311264037 62.7301371011734 25.268300568580628C63.035956170082095 25.45194192123413 63.39049641418457 25.623090664863586 63.79400768566131 25.782246503829956C64.20976171398162 25.92890973377228 64.66849031734466 26.045090997695922 65.16969379138948 26.13079029560089C65.68338987445831 26.22873235034943 66.23356437587738 26.277453525543212 66.82046714782715 26.277453525543212C67.6764607181549 26.277453525543212 68.42851578140258 26.173515018463135 69.0766323375702 25.96563800430298C69.73699165058136 25.75776099014282 70.28716615200042 25.482423887252807 70.72740569400787 25.139876547813415C71.16764523601532 24.785211377620698 71.49794981861115 24.369307437992095 71.71806958961486 23.892239684581757C71.93793950843812 23.402929174327852 72.04812432003021 22.88306174240112 72.04812432003021 22.33261240358353C72.04812432003021 20.620075588130952 71.06995303344726 19.6170190243721 69.11336060810089 19.323442712306978C70.62971349143982 18.785211145114896 71.38776500701906 17.776033202934265 71.38776500701906 16.295933870983124C71.38776500701906 15.73324177532196 71.27158374309539 15.250052643489838 71.0392212152481 14.846391460704803C70.8191014442444 14.44273027791977 70.49504316616058 14.112450680541992 70.06704638099671 13.855552668571471C69.65129235267639 13.586461870193482 69.15008887863159 13.390727672004699 68.56318610668183 13.268400044441222C67.97603348255157 13.133854645252228 67.32192047405243 13.066569453048706 66.60034737682344 13.066569453048706C65.57320506286621 13.066569453048706 64.69897228336335 13.188897080612183 63.977399186134335 13.433552335739135ZM49.904724972724914 22.846908131885527L56.911579522132875 13.250610569190979H59.40610369205474V26.094561729431152H57.113210231781004V16.351500995922088L50.06987726402283 26.094561729431152H47.612081364631656V13.250610569190979H49.904724972724914V22.846908131885527ZM44.08266946315766 13.250610569190979H34.96656280612946V26.094561729431152H39.71700231361389C40.536267613410956 26.094561729431152 41.27607991981506 26.002865979194638 41.93643923282623 25.819474478721617C42.5967985458374 25.635833126068114 43.159215804100036 25.366742327690126 43.623940859794615 25.011952231407165C44.100908672332764 24.64506928958893 44.46169522094726 24.19858344306946 44.706300505638126 23.672594632720944C44.96289869499206 23.13436306552887 45.09132271575928 22.510507156085968 45.09132271575928 21.801026904392245C45.09132271575928 20.38209138622284 44.64508672142029 19.336210158729553 43.75236488056183 18.66343319234848C42.871885796546934 17.990656225967406 41.545170718193056 17.654255250167846 39.77221964550018 17.654255250167846H37.25920641422272V15.360687189006805H44.08266946315766V13.250610569190979ZM37.25920641422272 23.984510094833375V19.764331869983675H39.69876310443878C40.689177147865294 19.764331869983675 41.43523575878143 19.905023632812497 41.93643923282623 20.18635718803406C42.45013531589508 20.455472971630098 42.70698335742951 20.97534040355682 42.70698335742951 21.745984469032287C42.70698335742951 22.174131165504456 42.633526816368104 22.5349926697731 42.486863586425784 22.82854399662018C42.35219326114654 23.10990253705978 42.15056255149841 23.336193656921388 41.88147175312042 23.507442341423037C41.624623711586004 23.67871601114273 41.30681173801422 23.80101865348816 40.927785980224606 23.874425224113462C40.56075312709808 23.947831794738768 40.15124540328979 23.984510094833375 39.69876310443878 23.984510094833375H37.25920641422272Z" fill="white"></path></svg> 