<svg width="88" height="23" viewBox="0 0 88 23" fill="none" xmlns="http://www.w3.org/2000/svg">
<g clip-path="url(#clip0_12090_1032)">
<path fill-rule="evenodd" clip-rule="evenodd" d="M9.4993 19.3105C9.55549 19.5825 9.58358 19.7171 9.4993 19.8132C9.41501 19.9093 9.27306 19.896 8.98914 19.8709C7.40397 19.7289 6.51674 19.4391 5.82323 19.1522C4.66984 18.6746 3.75304 17.7578 3.27541 16.6044C2.98854 15.9109 2.69724 15.0237 2.55676 13.4385C2.53162 13.1561 2.51832 13.0141 2.61443 12.9283C2.70907 12.8441 2.84511 12.8722 3.11719 12.9283C6.31712 13.5908 8.83684 16.1105 9.4993 19.3105ZM12.5632 19.9286C12.3429 19.9389 12.2334 19.9433 12.1565 19.8812C12.0811 19.8191 12.0649 19.7038 12.0323 19.4746C11.3684 14.7753 7.65091 11.0578 2.95158 10.3938C2.72238 10.3613 2.60852 10.345 2.54493 10.2696C2.48283 10.1942 2.48726 10.0833 2.49761 9.86299C2.5405 8.94027 2.62774 8.2157 2.74012 7.6257C2.77709 7.43199 2.79483 7.33439 2.87173 7.27525C2.94862 7.2161 3.04769 7.22349 3.24732 7.23828C9.62055 7.71738 14.7088 12.8056 15.1879 19.1774C15.2027 19.377 15.2101 19.4761 15.1509 19.553C15.0918 19.6299 14.9942 19.6476 14.8005 19.6846C14.209 19.7969 13.4844 19.8842 12.5632 19.9271V19.9286ZM18.2769 17.9781C18.027 18.2517 17.9013 18.3892 17.749 18.3434C17.5967 18.2975 17.5642 18.095 17.4991 17.6898C16.4448 11.1495 11.2797 5.98433 4.73933 4.93001C4.33417 4.86495 4.13159 4.83242 4.08575 4.67863C4.03991 4.52633 4.17743 4.40064 4.45099 4.14926C4.85172 3.78402 5.31455 3.48679 5.82471 3.27534C6.7903 2.87461 8.13149 2.46796 11.2146 2.46796C14.2977 2.46796 15.6389 2.87461 16.6045 3.27534C17.7579 3.75296 18.6747 4.66976 19.1523 5.82315C19.553 6.78875 19.9597 8.12994 19.9597 11.213C19.9597 14.2962 19.553 15.6373 19.1523 16.6029C18.9409 17.1131 18.6436 17.5774 18.2784 17.9781H18.2769ZM7.48998e-05 11.213C7.48998e-05 7.86969 0.448124 6.19727 0.995246 4.87826C1.72425 3.12008 3.12015 1.7227 4.87981 0.993692C6.19734 0.448049 7.86976 0 11.2131 0C14.5565 0 16.2289 0.448049 17.5479 0.995171C19.3061 1.72417 20.7035 3.12008 21.4325 4.87974C21.9781 6.19875 22.4276 7.87116 22.4276 11.2145C22.4276 14.5579 21.9796 16.2303 21.4325 17.5493C20.7035 19.3075 19.3076 20.7049 17.5479 21.4324C16.2289 21.9795 14.5565 22.4276 11.2131 22.4276C7.86976 22.4276 6.19734 21.9795 4.87833 21.4324C3.12015 20.7049 1.72277 19.3075 0.993767 17.5493C0.448124 16.2303 -0.00140381 14.5579 -0.00140381 11.2145L7.48998e-05 11.213Z" fill="white"/>
<path d="M85.435 18.8327C85.3136 18.9821 85.141 19.1314 84.9169 19.2808C84.7023 19.4208 84.4456 19.5514 84.1469 19.6728C83.8482 19.7848 83.5122 19.8781 83.1389 19.9528C82.7749 20.0274 82.3829 20.0648 81.9629 20.0648C81.1602 20.0648 80.4321 19.9481 79.7788 19.7148C79.1254 19.4814 78.5654 19.1501 78.0987 18.7207C77.6414 18.2821 77.2821 17.75 77.0207 17.1247C76.7687 16.4993 76.6427 15.79 76.6427 14.9966C76.6427 14.2593 76.7687 13.5826 77.0207 12.9666C77.2727 12.3506 77.6321 11.8185 78.0987 11.3705C78.5654 10.9225 79.1254 10.5772 79.7788 10.3345C80.4415 10.0825 81.1788 9.95648 81.9909 9.95648C82.7656 9.95648 83.4282 10.0545 83.9789 10.2505C84.5296 10.4372 84.9496 10.6332 85.239 10.8385V13.2746C85.0896 13.0599 84.9029 12.8499 84.6789 12.6446C84.4643 12.4392 84.2169 12.2572 83.9369 12.0985C83.6662 11.9399 83.3629 11.8139 83.0269 11.7205C82.7002 11.6179 82.3549 11.5665 81.9909 11.5665C81.4588 11.5665 80.9782 11.6505 80.5488 11.8185C80.1195 11.9865 79.7555 12.2199 79.4568 12.5186C79.1581 12.8172 78.9294 13.1812 78.7708 13.6106C78.6121 14.0306 78.5328 14.4973 78.5328 15.0106C78.5328 15.4866 78.6028 15.9347 78.7428 16.3547C78.8921 16.7653 79.1068 17.1247 79.3868 17.4327C79.6761 17.7407 80.0355 17.9881 80.4648 18.1747C80.8942 18.3521 81.3888 18.4454 81.9489 18.4547C82.3782 18.4547 82.7702 18.4081 83.1249 18.3147C83.4889 18.2214 83.8156 18.0954 84.1049 17.9367C84.4036 17.778 84.6649 17.5914 84.8889 17.3767C85.113 17.162 85.295 16.9287 85.435 16.6767V18.8327Z" fill="white"/>
<path d="M74.6728 15.6686H70.1647V18.3007H75.3448V19.9108H68.4146V10.1105H75.1908V11.7205H70.1647V14.0586H74.6728V15.6686Z" fill="white"/>
<path d="M64.1106 15.6686H58.7485V19.9108H56.9984V10.1105H58.7485V14.0586H64.1106V10.1105H65.8607V19.9108H64.1106V15.6686Z" fill="white"/>
<path d="M47.5847 10.8385C47.8648 10.6331 48.2801 10.4371 48.8308 10.2505C49.3815 10.0638 50.0488 9.97046 50.8328 9.97046C51.3835 9.97046 51.8829 10.0218 52.3309 10.1245C52.7789 10.2178 53.1616 10.3671 53.4789 10.5725C53.8056 10.7685 54.0529 11.0205 54.2209 11.3285C54.3983 11.6365 54.487 12.0052 54.487 12.4345C54.487 13.5639 53.9083 14.3339 52.7509 14.7446C54.2443 14.9686 54.991 15.734 54.991 17.0407C54.991 17.4607 54.907 17.8574 54.739 18.2307C54.571 18.5947 54.3189 18.9121 53.9829 19.1827C53.6469 19.4441 53.2269 19.6541 52.7229 19.8127C52.2282 19.9714 51.6542 20.0508 51.0008 20.0508C50.5528 20.0508 50.1328 20.0134 49.7408 19.9388C49.3581 19.8734 49.0081 19.7847 48.6908 19.6727C48.3828 19.5514 48.1121 19.4207 47.8788 19.2807C47.6547 19.1314 47.4774 18.9821 47.3467 18.8327V16.6767C47.4961 16.9287 47.6874 17.162 47.9208 17.3767C48.1541 17.5914 48.4248 17.778 48.7328 17.9367C49.0408 18.0954 49.3861 18.2214 49.7688 18.3147C50.1608 18.3987 50.5808 18.4407 51.0289 18.4407C51.3275 18.4407 51.6075 18.408 51.8689 18.3427C52.1302 18.2774 52.3542 18.184 52.5409 18.0627C52.7369 17.932 52.8909 17.7734 53.0029 17.5867C53.1149 17.4 53.1709 17.1807 53.1709 16.9287C53.1709 16.49 52.9982 16.168 52.6529 15.9626C52.3169 15.7573 51.7662 15.6546 51.0008 15.6546H49.5168V14.2126H50.9868C51.3042 14.2126 51.5702 14.1799 51.7849 14.1146C51.9995 14.0399 52.1722 13.9419 52.3029 13.8206C52.4336 13.6992 52.5269 13.5592 52.5829 13.4006C52.6482 13.2419 52.6809 13.0692 52.6809 12.8825C52.6809 12.6585 52.6342 12.4672 52.5409 12.3085C52.4476 12.1405 52.3169 12.0052 52.1489 11.9025C51.9809 11.7998 51.7849 11.7252 51.5609 11.6785C51.3369 11.6225 51.0942 11.5898 50.8328 11.5805C50.4595 11.5712 50.1048 11.6132 49.7688 11.7065C49.4421 11.7998 49.1388 11.9305 48.8588 12.0985C48.5881 12.2572 48.3408 12.4392 48.1168 12.6445C47.9021 12.8499 47.7248 13.0599 47.5847 13.2746V10.8385Z" fill="white"/>
<path d="M38.0896 17.4327L43.4377 10.1105H45.3418V19.9108H43.5918V12.4765L38.2156 19.9108H36.3395V10.1105H38.0896V17.4327Z" fill="white"/>
<path d="M26.687 10.1105H33.6452V11.7205H28.437V13.4706H30.3551C31.7084 13.4706 32.7211 13.7272 33.3931 14.2406C34.0745 14.7539 34.4152 15.552 34.4152 16.6347C34.4152 17.176 34.3172 17.652 34.1212 18.0627C33.9345 18.4641 33.6592 18.8047 33.2951 19.0847C32.9405 19.3554 32.5111 19.5608 32.0071 19.7008C31.5031 19.8408 30.9384 19.9108 30.3131 19.9108H26.687V10.1105ZM28.437 15.0806V18.3007H30.2991C30.6444 18.3007 30.9571 18.2727 31.2371 18.2167C31.5264 18.1607 31.7691 18.0674 31.9651 17.9367C32.1704 17.806 32.3245 17.6334 32.4271 17.4187C32.5391 17.1947 32.5951 16.9193 32.5951 16.5927C32.5951 16.0046 32.3991 15.608 32.0071 15.4026C31.6244 15.188 31.0551 15.0806 30.2991 15.0806H28.437Z" fill="white"/>
<g clip-path="url(#clip1_12090_1032)">
<path d="M29.2941 4.07416C29.8079 3.81187 30.0672 3.37932 30.0672 2.78419C30.0672 2.52804 30.0165 2.30409 29.9168 2.11696C29.8171 1.93137 29.6714 1.77492 29.4858 1.65374C29.3033 1.53564 29.0824 1.44514 28.8293 1.38839C28.5809 1.33163 28.2986 1.30249 27.9934 1.30249C27.5578 1.30249 27.1805 1.35771 26.8721 1.46661C26.5654 1.57552 26.3292 1.69209 26.1696 1.81326L26.139 1.83627V3.52811L26.2801 3.30263C26.3537 3.18606 26.4488 3.06949 26.5638 2.95751C26.6789 2.84401 26.8123 2.74278 26.9565 2.65228C27.1007 2.56332 27.2617 2.49276 27.4351 2.44061C27.6084 2.38999 27.794 2.36698 27.9888 2.37158C28.1253 2.37619 28.2541 2.39306 28.3723 2.4222C28.4858 2.44981 28.5855 2.48969 28.6698 2.54337C28.7496 2.59399 28.814 2.66148 28.8585 2.74278C28.903 2.82407 28.926 2.92377 28.926 3.03727C28.926 3.13391 28.9106 3.2244 28.8815 3.3057C28.8523 3.38546 28.8063 3.45602 28.7434 3.51584C28.6806 3.57719 28.5947 3.62627 28.4888 3.66155C28.3799 3.69836 28.2419 3.71677 28.0778 3.71677H27.1973V4.6923H28.0854C28.4873 4.6923 28.7787 4.74752 28.952 4.85642C29.1162 4.95919 29.1959 5.11871 29.1959 5.34112C29.1959 5.46996 29.1683 5.58347 29.1146 5.67703C29.0594 5.77213 28.9843 5.85496 28.8892 5.91938C28.7925 5.98533 28.676 6.03749 28.5425 6.07123C28.406 6.10651 28.2587 6.12491 28.1023 6.12491C27.8645 6.12491 27.6391 6.10037 27.4351 6.05129C27.2311 6.00221 27.0455 5.93318 26.8829 5.84729C26.7218 5.75986 26.5776 5.65709 26.4549 5.54052C26.3338 5.42395 26.2325 5.29664 26.1543 5.15859L26.0117 4.90704V6.45316L26.0301 6.47463C26.1068 6.56513 26.2111 6.65409 26.3414 6.73999C26.4703 6.82588 26.6252 6.90258 26.8001 6.97007C26.9749 7.03756 27.1728 7.09277 27.3875 7.13419C27.6023 7.17407 27.8385 7.19554 28.087 7.19554C28.4505 7.19554 28.7772 7.14799 29.0564 7.05596C29.337 6.9624 29.5763 6.83662 29.7665 6.67863C29.9583 6.52065 30.1055 6.32892 30.2021 6.10804C30.2972 5.8887 30.3463 5.65249 30.3463 5.40401C30.3463 4.6969 29.9935 4.24902 29.2972 4.06956L29.2941 4.07416Z" fill="white"/>
<path d="M34.925 4.10791C35.1183 3.99901 35.267 3.85636 35.3698 3.68457C35.5048 3.46063 35.5723 3.17994 35.5723 2.84709C35.5723 1.87463 34.9388 1.38226 33.6887 1.38226H31.2836V7.11886H33.5583C33.8896 7.11886 34.1903 7.08665 34.4526 7.0253C34.7195 6.96241 34.9495 6.86118 35.1382 6.7262C35.3299 6.58815 35.4787 6.40869 35.5799 6.18935C35.6812 5.97308 35.7333 5.71232 35.7333 5.41475C35.7333 5.03283 35.6505 4.72452 35.4894 4.49751C35.3606 4.31652 35.1704 4.18461 34.925 4.10791ZM32.3941 2.45442H33.5737C33.8958 2.45442 34.1289 2.50811 34.2654 2.61394C34.3973 2.71671 34.4618 2.86396 34.4618 3.06336C34.4618 3.27964 34.3851 3.44222 34.2286 3.56033C34.0676 3.68304 33.839 3.74439 33.5507 3.74439H32.3941V2.45442ZM34.3866 5.87644C34.2271 5.99148 33.9694 6.04977 33.6197 6.04977H32.3941V4.68004H33.635C33.9556 4.68004 34.2056 4.73219 34.3759 4.83649C34.5369 4.93466 34.6152 5.10032 34.6152 5.34573C34.6152 5.59115 34.54 5.76754 34.3866 5.87798V5.87644Z" fill="white"/>
<path d="M38.9037 4.52192L37.2333 1.38367H35.9495L38.3346 5.83183C38.284 5.92693 38.2288 5.99289 38.1674 6.02817C38.0156 6.11713 37.81 6.10332 37.6367 6.0343C37.5447 5.99902 37.4649 5.9484 37.402 5.88705L37.2716 5.76128V7.02977L37.3177 7.04971C37.3928 7.08345 37.4894 7.11413 37.603 7.14174C37.718 7.16935 37.8422 7.18315 37.9695 7.18315C38.1137 7.18315 38.2518 7.16321 38.3791 7.12333C38.5079 7.08345 38.6337 7.0129 38.7533 6.9132C38.8714 6.81656 38.9865 6.68465 39.0969 6.52207C39.2058 6.36254 39.3163 6.15548 39.4252 5.90853L41.4406 1.38367H40.2688L38.9037 4.52192Z" fill="white"/>
<path d="M44.8198 4.11545L46.9227 1.38367H45.5637L43.8412 3.72892H43.1525V1.38367H42.042V7.12027H43.1525V4.70292H43.8887L45.8337 7.12027H47.2571L44.8198 4.11545Z" fill="white"/>
</g>
</g>
<defs>
<clipPath id="clip0_12090_1032">
<rect width="87.0131" height="22.4261" fill="white"/>
</clipPath>
<clipPath id="clip1_12090_1032">
<rect width="21.2484" height="5.89612" fill="white" transform="translate(26.0085 1.30414)"/>
</clipPath>
</defs>
</svg>
