<svg width="360" height="491" viewBox="0 0 360 491" fill="none" xmlns="http://www.w3.org/2000/svg">
<path d="M340 0C351.046 5.15406e-06 360 8.95431 360 20V471C360 482.046 351.046 491 340 491H20C8.95431 491 1.61075e-07 482.046 0 471V20C2.5772e-06 8.95431 8.95431 8.05322e-08 20 0H340ZM180.375 24C174.653 24 170.015 28.6387 170.015 34.3604V35H139.5C133.701 35 129 39.701 129 45.5C129 51.299 133.701 56 139.5 56H222.144C226.483 56 230 52.4825 230 48.1436C230 40.8846 224.115 35 216.856 35H190.689C190.717 34.6764 190.735 34.3493 190.735 34.0186V33.625C190.735 28.3094 186.426 24.0002 181.11 24H180.375Z" fill="#202020"/>
</svg>
